<?xml version="1.0" encoding="UTF-8" standalone="no"?>
<svg
   width="456"
   height="456"
   viewBox="0 0 456 456"
   version="1.1"
   id="svg1"
   sodipodi:docname="splashIcon.svg"
   inkscape:version="1.4 (86a8ad7, 2024-10-11)"
   xmlns:inkscape="http://www.inkscape.org/namespaces/inkscape"
   xmlns:sodipodi="http://sodipodi.sourceforge.net/DTD/sodipodi-0.dtd"
   xmlns="http://www.w3.org/2000/svg"
   xmlns:svg="http://www.w3.org/2000/svg">
  <defs
     id="defs1" />
  <sodipodi:namedview
     id="namedview1"
     pagecolor="#ffffff"
     bordercolor="#000000"
     borderopacity="0.25"
     inkscape:showpageshadow="2"
     inkscape:pageopacity="0.0"
     inkscape:pagecheckerboard="0"
     inkscape:deskcolor="#d1d1d1"
     inkscape:zoom="2"
     inkscape:cx="199.5"
     inkscape:cy="223.75"
     inkscape:window-width="2560"
     inkscape:window-height="1369"
     inkscape:window-x="-8"
     inkscape:window-y="-8"
     inkscape:window-maximized="1"
     inkscape:current-layer="svg1" />
  <rect
     x="0"
     y="0"
     width="456"
     height="456"
     fill="#512BD4"
     id="rect1"
     style="fill:#33cc99;fill-opacity:1" />
  <path
     d="M 120.56745,271.69476 H 106.89299 L 80.395406,240.19562 H 65.550372 v 31.49914 H 55.015186 v -79.22672 h 22.18774 q 7.183081,0 11.971802,0.95774 4.788721,0.90454 8.619697,3.2989 4.309845,2.71361 6.704205,6.86383 2.44757,4.09702 2.44757,10.42877 0,8.56649 -4.30985,14.36616 -4.309845,5.74647 -11.865382,8.67291 z M 95.932145,214.76219 q 0,-3.40531 -1.223784,-6.0125 -1.170576,-2.6604 -3.937393,-4.46947 -2.287944,-1.54304 -5.427217,-2.12832 -3.139272,-0.6385 -7.395913,-0.6385 H 65.550372 v 29.9029 h 10.641602 q 5.001553,0 8.726113,-0.85133 3.724561,-0.90453 6.331753,-3.29889 2.394361,-2.23474 3.511729,-5.10797 1.170576,-2.92644 1.170576,-7.39592 z m 85.452065,-12.92954 h -40.06563 v 22.34736 h 34.42558 v 9.36461 h -34.42558 v 38.15014 h -10.53519 v -79.22672 h 50.60082 z m 73.21421,64.11565 q -2.92644,1.27699 -5.3208,2.39436 -2.34115,1.11737 -6.17213,2.34115 -3.24568,1.01095 -7.07666,1.70266 -3.77777,0.74491 -8.35366,0.74491 -8.6197,0 -15.69636,-2.39436 -7.02346,-2.44757 -12.23784,-7.60875 -5.10797,-5.05476 -7.9812,-12.82313 -2.87324,-7.82157 -2.87324,-18.14393 0,-9.79027 2.76682,-17.50543 2.76682,-7.71516 7.9812,-13.03596 5.05476,-5.16118 12.18464,-7.87479 7.18308,-2.71361 15.90919,-2.71361 6.38496,0 12.71671,1.54303 6.38496,1.54304 14.15333,5.42722 v 12.50388 h -0.79812 q -6.54458,-5.48042 -12.98275,-7.9812 -6.43817,-2.50077 -13.78087,-2.50077 -6.01251,0 -10.85444,1.96869 -4.78872,1.91549 -8.56649,6.01251 -3.67135,3.9906 -5.74646,10.10952 -2.02191,6.06571 -2.02191,14.04691 0,8.35366 2.23474,14.36617 2.28794,6.0125 5.85288,9.79027 3.72456,3.93739 8.67291,5.85288 5.00155,1.86228 10.53518,1.86228 7.60875,0 14.25975,-2.60719 6.651,-2.60719 12.45067,-7.82158 h 0.74491 z"
     id="text1"
     style="font-size:108.97px;font-family:Sans;-inkscape-font-specification:Sans;fill:#f2fcf8;stroke-width:0.567553"
     transform="scale(1.0179009,0.9824139)"
     aria-label="RFC" />
  <path
     d="m 302.99553,246.72112 h -5.53479 v -3.52214 q -0.73995,0.50316 -2.01265,1.42069 -1.24311,0.88794 -2.42702,1.4207 -1.3911,0.68075 -3.19657,1.12471 -1.80546,0.47357 -4.23248,0.47357 -4.46927,0 -7.57704,-2.95978 -3.10777,-2.95978 -3.10777,-7.54744 0,-3.75892 1.59828,-6.06755 1.62788,-2.33823 4.61726,-3.67013 3.01898,-1.3319 7.25146,-1.80547 4.23249,-0.47356 9.08653,-0.71034 v -0.85834 q 0,-1.89426 -0.68075,-3.13737 -0.65115,-1.2431 -1.89426,-1.95345 -1.18391,-0.68075 -2.84139,-0.91753 -1.65748,-0.23679 -3.46294,-0.23679 -2.19024,0 -4.88364,0.59196 -2.6934,0.56236 -5.56439,1.65748 h -0.29598 v -5.65318 q 1.62788,-0.44397 4.70605,-0.97673 3.07818,-0.53276 6.06755,-0.53276 3.49254,0 6.06755,0.59196 2.60461,0.56235 4.49887,1.95345 1.86466,1.3615 2.84139,3.52214 0.97673,2.16064 0.97673,5.3572 z m -5.53479,-8.1394 v -9.20492 q -2.54541,0.14799 -6.00836,0.44397 -3.43334,0.29598 -5.44599,0.85834 -2.39742,0.68075 -3.87731,2.13104 -1.47989,1.42069 -1.47989,3.93651 0,2.84138 1.71667,4.29168 1.71667,1.42069 5.23881,1.42069 2.93018,0 5.3572,-1.12471 2.42702,-1.15432 4.49887,-2.7526 z m 21.87277,8.1394 h -5.56438 v -46.05418 h 5.56438 z m 35.45817,-2.07185 q -2.78219,1.3319 -5.29801,2.07185 -2.48621,0.73994 -5.298,0.73994 -3.58134,0 -6.57072,-1.03592 -2.98937,-1.06552 -5.12042,-3.19657 -2.16064,-2.13104 -3.34455,-5.3868 -1.18391,-3.25575 -1.18391,-7.60663 0,-8.1098 4.43967,-12.72706 4.46927,-4.61725 11.77993,-4.61725 2.84139,0 5.56438,0.79914 2.7526,0.79914 5.03163,1.95345 v 6.18594 h -0.29598 q -2.54541,-1.98305 -5.26841,-3.04857 -2.6934,-1.06552 -5.26841,-1.06552 -4.73564,0 -7.48824,3.19656 -2.723,3.16697 -2.723,9.32331 0,5.97876 2.6638,9.20492 2.6934,3.19656 7.54744,3.19656 1.68708,0 3.43335,-0.44397 1.74627,-0.44397 3.13737,-1.15431 1.21351,-0.62156 2.27903,-1.30231 1.06552,-0.71034 1.68707,-1.21351 h 0.29598 z"
     id="text2"
     style="font-size:60.6163px;font-family:Sans;-inkscape-font-specification:Sans;fill:#f2fcf8;stroke-width:0.31571"
     transform="scale(0.98305886,1.0172331)"
     aria-label="alc" />
</svg>
