<?xml version="1.0" encoding="UTF-8" standalone="no"?>
<svg
   width="456"
   height="456"
   viewBox="0 0 456 456"
   version="1.1"
   xml:space="preserve"
   style="fill-rule:evenodd;clip-rule:evenodd;stroke-linejoin:round;stroke-miterlimit:2;"
   id="svg4"
   sodipodi:docname="appiconfg.svg"
   inkscape:version="1.4 (86a8ad7, 2024-10-11)"
   xmlns:inkscape="http://www.inkscape.org/namespaces/inkscape"
   xmlns:sodipodi="http://sodipodi.sourceforge.net/DTD/sodipodi-0.dtd"
   xmlns="http://www.w3.org/2000/svg"
   xmlns:svg="http://www.w3.org/2000/svg"><defs
   id="defs4" /><sodipodi:namedview
   id="namedview4"
   pagecolor="#ffffff"
   bordercolor="#000000"
   borderopacity="0.25"
   inkscape:showpageshadow="2"
   inkscape:pageopacity="0.0"
   inkscape:pagecheckerboard="0"
   inkscape:deskcolor="#d1d1d1"
   inkscape:zoom="2.5592105"
   inkscape:cx="227.80463"
   inkscape:cy="195.95887"
   inkscape:window-width="2560"
   inkscape:window-height="1369"
   inkscape:window-x="-8"
   inkscape:window-y="-8"
   inkscape:window-maximized="1"
   inkscape:current-layer="svg4" />
    
    
    
    
<path
   style="font-size:404.445px;font-family:Sans;-inkscape-font-specification:Sans;fill:#ffffff;stroke-width:1.28891"
   d="m 301.75005,318.79693 h -30.7691 l -59.6226,-72.1985 h -33.40303 v 72.1985 H 154.24995 V 137.20307 h 49.92495 q 16.16276,0 26.93792,2.19522 10.77517,2.07327 19.39531,7.56133 9.69765,6.2198 15.08524,15.73244 5.5073,9.39069 5.5073,23.90356 0,19.63506 -9.69765,32.92837 -9.69765,13.17134 -26.69847,19.87897 z M 246.31779,188.30301 q 0,-7.80524 -2.75366,-13.78113 -2.63393,-6.09784 -8.85958,-10.24438 -5.14814,-3.53675 -12.21186,-4.87828 -7.06372,-1.46347 -16.64166,-1.46347 h -27.89571 v 68.53979 h 23.94482 q 11.25407,0 19.63476,-1.95132 8.38068,-2.07326 14.24716,-7.56133 5.38759,-5.12219 7.9018,-11.70786 2.63393,-6.70763 2.63393,-16.95202 z"
   id="text2"
   aria-label="R" /></svg>
